<?xml version="1.0" encoding="UTF-8"?>
<!-- Generator: visioncortex VTracer 0.6.5 -->
<svg version="1.1" xmlns="http://www.w3.org/2000/svg" width="760" height="760">
<path d="M0 0 C250.8 0 501.6 0 760 0 C760 250.8 760 501.6 760 760 C509.2 760 258.4 760 0 760 C0 509.2 0 258.4 0 0 Z " fill="#FDFDFD" transform="translate(0,0)"/>
<path d="M0 0 C12.21 0 24.42 0 37 0 C37 12.0046 36.6309 24.012 36 36 C51.51 36 67.02 36 83 36 C83.33 29.07 83.66 22.14 84 15 C84.33 10.05 84.66 5.1 85 0 C97.21 0 109.42 0 122 0 C122 12.1495 121.7162 23.9146 121 36 C132.22 36 143.44 36 155 36 C154.9897 34.0303 154.9897 34.0303 154.9375 24.0625 C154.8981 16.5288 155.1655 9.5104 156 2 C194.94 2 233.88 2 274 2 C271.8 13 268.5507 23.3837 265 34 C264.5282 35.4154 264.0564 36.8308 263.5703 38.2891 C263.0934 39.7199 262.6164 41.1508 262.125 42.625 C261.6042 44.1912 261.0834 45.7574 260.5469 47.3711 C259.5877 50.2415 258.6204 53.1092 257.6406 55.9727 C254.7147 64.5608 252.2554 73.2176 250 82 C249.1682 85.1671 248.3348 88.3337 247.5 91.5 C247.0836 93.0843 246.6673 94.6685 246.2383 96.3008 C244.5069 102.8712 242.7548 109.4358 241 116 C243.2688 116.0825 245.5375 116.165 247.875 116.25 C277.9585 117.9792 277.9585 117.9792 286 122 C286 122.66 286 123.32 286 124 C283.9581 124.3713 281.9162 124.7425 279.8125 125.125 C249.289 131.264 219.5464 142.6015 190.125 152.668 C178.9477 156.2773 167.8073 157.1078 156.1367 158.2188 C150 159 150 159 147 161 C146.4883 165.5703 146.4883 165.5703 146.3125 171.125 C146.2796 172.0441 146.2796 172.0441 146.1133 176.6953 C146.0759 178.1159 146.0385 179.5364 146 181 C152.816 179.4193 158.6301 176.908 165 174 C168.9937 172.6479 172.9952 171.3188 177 170 C179.8584 169.0087 182.7151 168.0122 185.5703 167.0117 C208.0575 159.1693 230.4675 152.2261 253.7305 147.0195 C257.4871 146.1225 261.2155 145.1092 264.9375 144.0781 C273.1573 141.8748 281.423 140.3382 289.8125 138.9375 C291.3276 138.6815 292.8426 138.4254 294.4036 138.1616 C327.4699 132.6897 327.4699 132.6897 342 133 C341.6236 132.4837 341.6236 132.4837 339.7188 129.8711 C333.1265 120.7908 326.5955 111.6675 320.125 102.5 C318.7457 100.5509 317.3664 98.6019 315.9453 96.5938 C313 92 313 92 314 90 C315.7738 90.5569 317.5475 91.1137 319.375 91.6875 C326.4231 93.8621 333.5226 95.8224 340.6406 97.7539 C351.3557 100.8167 361.6832 104.8793 372.0898 108.8438 C377.3576 110.7656 382.6284 112.4014 388 114 C399.0184 117.926 409.8147 122.2023 420.3594 127.2656 C424.3965 129.1889 428.4694 131.0115 432.5625 132.8125 C433.8425 133.3758 435.1226 133.9391 436.4414 134.5195 C439.5721 135.822 442.7832 136.9277 446 138 C446 138.66 446 139.32 446 140 C447.65 140.33 449.3 140.66 451 141 C453.8169 142.214 456.6065 143.492 459.375 144.8125 C460.8265 145.4996 462.278 146.1866 463.7734 146.8945 C466.4464 148.2261 469.0844 149.6324 471.6641 151.1367 C475 153 475 153 481 155 C481.33 155.99 481.66 156.98 482 158 C480.68 158.33 479.36 158.66 478 159 C477.67 159.99 477.34 160.98 477 162 C474.0192 163.3757 471.0155 164.7022 468 166 C465.3113 167.6309 462.6465 169.3015 460 171 C454.3963 174.314 448.7808 177.575 443.0625 180.6875 C429.4968 188.0997 416.0955 195.7832 403 204 C401.5202 204.9255 400.0403 205.8511 398.5156 206.8047 C388.5696 213.0488 378.7216 219.4121 369 226 C367.7058 226.8727 366.4116 227.7454 365.0781 228.6445 C355.5043 235.1543 346.2081 241.9837 337 249 C332.4314 239.8627 349.2475 210.3353 353 201 C302.6482 208.1931 243.246 233.9982 202 264 C203.2091 263.5411 204.4183 263.0822 205.6641 262.6094 C215.3692 258.9718 225.0161 255.7678 235 253 C237.6753 252.0233 240.3418 251.0224 243 250 C250.1592 247.5508 257.2591 245.2088 264.543 243.1562 C272.1715 240.9504 279.6717 238.4939 287.1875 235.9375 C295.7303 233.0324 304.2635 230.2755 313 228 C311.2746 233.1763 306.1825 235.6929 302 239 C259.9342 277.2417 250.4164 329.3317 260 383 C224.36 383 188.72 383 152 383 C152 359 152 359 153 353 C137.82 353 122.64 353 107 353 C106.34 362.57 105.68 372.14 105 382 C92.79 382 80.58 382 68 382 C68 372.1 68 362.2 68 352 C54.8 352 41.6 352 28 352 C28 338.6778 28.7423 326.2061 30 313 C36.435 312.835 36.435 312.835 69 312 C69 308.7 69 305.4 69 302 C69.9375 294.3125 69.9375 294.3125 70.4648 290.6133 C71.2205 284.0992 71.5638 277.5432 72 271 C57.81 271 43.62 271 29 271 C28.8192 249.8491 29.2927 229.0817 31 208 C29.68 208 28.36 208 27 208 C26.8511 191.6373 27.3258 175.3494 28 159 C12.82 159 -2.36 159 -18 159 C-18.0822 143.5556 -17.7729 128.4576 -17 113 C-1.49 113 14.02 113 30 113 C30.0206 117.6406 30.0412 122.2812 30.0625 127.0625 C30.0716 128.4922 30.0807 129.9218 30.0901 131.3948 C30.0926 132.5755 30.0951 133.7562 30.0977 134.9727 C30.1029 136.1509 30.1081 137.3292 30.1135 138.5432 C29.9481 145.0373 29.4321 151.5182 29 158 C44.84 158 60.68 158 77 158 C77.1237 153.9575 77.2475 149.915 77.375 145.75 C77.7707 133.7624 78.338 121.7882 79 109.8125 C79.083 108.2943 79.166 106.7761 79.2515 105.2119 C79.6737 97.7706 80.2574 90.4256 81 83 C65.49 83 49.98 83 34 83 C33.9265 67.2808 33.9087 51.6876 35 36 C23.12 36 11.24 36 -1 36 C-1 23.8505 -0.7162 12.0854 0 0 Z " fill="#144494" transform="translate(191,189)"/>
<path d="M0 0 C12.21 0 24.42 0 37 0 C37 12.0046 36.6309 24.012 36 36 C51.51 36 67.02 36 83 36 C83.33 29.07 83.66 22.14 84 15 C84.33 10.05 84.66 5.1 85 0 C97.21 0 109.42 0 122 0 C122 12.1495 121.7162 23.9146 121 36 C132.22 36 143.44 36 155 36 C154.9897 34.0303 154.9897 34.0303 154.9375 24.0625 C154.8981 16.5288 155.1655 9.5104 156 2 C194.94 2 233.88 2 274 2 C271.8 13 268.5507 23.3837 265 34 C264.5282 35.4154 264.0564 36.8308 263.5703 38.2891 C263.0934 39.7199 262.6164 41.1508 262.125 42.625 C261.6042 44.1912 261.0834 45.7574 260.5469 47.3711 C259.5877 50.2415 258.6204 53.1092 257.6406 55.9727 C254.7147 64.5608 252.2554 73.2176 250 82 C249.1682 85.1671 248.3348 88.3337 247.5 91.5 C247.0836 93.0843 246.6673 94.6685 246.2383 96.3008 C244.5069 102.8712 242.7548 109.4358 241 116 C243.2688 116.0825 245.5375 116.165 247.875 116.25 C277.9585 117.9792 277.9585 117.9792 286 122 C286 122.66 286 123.32 286 124 C283.9581 124.3713 281.9162 124.7425 279.8125 125.125 C249.289 131.264 219.5464 142.6015 190.125 152.668 C178.9477 156.2773 167.8073 157.1078 156.1367 158.2188 C150 159 150 159 147 161 C146.4883 165.5703 146.4883 165.5703 146.3125 171.125 C146.2796 172.0441 146.2796 172.0441 146.1133 176.6953 C146.0759 178.1159 146.0385 179.5364 146 181 C146.99 181.33 147.98 181.66 149 182 C144.2101 184.0043 139.4182 186.0036 134.625 188 C133.2586 188.5723 131.8922 189.1447 130.4844 189.7344 C120.2266 194 120.2266 194 118 194 C117.67 194.99 117.34 195.98 117 197 C113.0724 198.0232 109.1411 199.0353 105.1875 199.9531 C93 203 93 203 90 206 C97.92 206.33 105.84 206.66 114 207 C114.1553 220.3537 113.5502 233.6579 113 247 C100.13 247 87.26 247 74 247 C73.8661 218.3393 73.8661 218.3393 75 209 C73.02 209.33 71.04 209.66 69 210 C66.2536 210.0801 63.5054 210.1077 60.7578 210.0977 C59.198 210.0944 57.6383 210.0912 56.0312 210.0879 C54.4122 210.0795 52.7931 210.0711 51.125 210.0625 C50.3039 210.0602 50.3039 210.0602 46.1484 210.0488 C42.0989 210.0371 38.0495 210.0191 34 210 C33.34 211.98 32.68 213.96 32 216 C31.67 216 31.34 216 31 216 C31 213.36 31 210.72 31 208 C29.68 208 28.36 208 27 208 C26.8511 191.6373 27.3258 175.3494 28 159 C12.82 159 -2.36 159 -18 159 C-18.0822 143.5556 -17.7729 128.4576 -17 113 C-1.49 113 14.02 113 30 113 C30.0206 117.6406 30.0412 122.2812 30.0625 127.0625 C30.0716 128.4922 30.0807 129.9218 30.0901 131.3948 C30.0926 132.5755 30.0951 133.7562 30.0977 134.9727 C30.1029 136.1509 30.1081 137.3292 30.1135 138.5432 C29.9481 145.0373 29.4321 151.5182 29 158 C44.84 158 60.68 158 77 158 C77.1237 153.9575 77.2475 149.915 77.375 145.75 C77.7707 133.7624 78.338 121.7882 79 109.8125 C79.083 108.2943 79.166 106.7761 79.2515 105.2119 C79.6737 97.7706 80.2574 90.4256 81 83 C65.49 83 49.98 83 34 83 C33.9265 67.2808 33.9087 51.6876 35 36 C23.12 36 11.24 36 -1 36 C-1 23.8505 -0.7162 12.0854 0 0 Z " fill="#FC534A" transform="translate(191,189)"/>
<path d="M0 0 C6.7058 1.6181 13.3161 3.5047 19.9375 5.4375 C20.9629 5.7359 20.9629 5.7359 26.1523 7.2461 C37.3388 10.6013 48.179 14.6872 59.0898 18.8438 C64.3576 20.7656 69.6284 22.4014 75 24 C86.0184 27.926 96.8147 32.2023 107.3594 37.2656 C111.3965 39.1889 115.4694 41.0115 119.5625 42.8125 C120.8425 43.3758 122.1226 43.9391 123.4414 44.5195 C126.5721 45.822 129.7832 46.9277 133 48 C133 48.66 133 49.32 133 50 C134.65 50.33 136.3 50.66 138 51 C165 62.462 165 62.462 165 66 C163.7042 66.0146 162.4083 66.0292 161.0732 66.0442 C120.7053 66.5489 81.7721 69.0241 42 76 C39.6977 76.4022 37.3955 76.8044 35.0234 77.2188 C8.988 82.0173 -16.6747 88.3069 -42 96 C-44.35 96.6845 -46.6999 97.369 -49.1211 98.0742 C-51.5149 98.7716 -53.9087 99.469 -56.375 100.1875 C-58.5484 100.8204 -60.7217 101.4534 -62.9609 102.1055 C-70.1588 104.3635 -76.983 107.057 -83.8125 110.25 C-88 112 -88 112 -93 112 C-93 112.66 -93 113.32 -93 114 C-97.0867 115.7981 -101.2224 117.485 -105.375 119.125 C-136.59 131.59 -136.59 131.59 -140 135 C-141.32 135 -142.64 135 -144 135 C-146.5099 135.9651 -148.9859 137.02 -151.4375 138.125 C-152.8632 138.7644 -154.2889 139.4038 -155.7578 140.0625 C-161.5133 142.6912 -167.2618 145.3338 -173 148 C-173.8972 148.4022 -173.8972 148.4022 -178.4375 150.4375 C-200.1486 160.4392 -200.1486 160.4392 -200.5352 173.9062 C-200.6235 176.0938 -200.7118 178.2813 -200.8027 180.5352 C-200.9759 185.1774 -201.1217 189.8208 -201.2402 194.4648 C-201.2889 195.5586 -201.2889 195.5586 -201.5352 201.0938 C-201.601 203.1118 -201.6668 205.1298 -201.7346 207.209 C-203.4596 213.7401 -205.6282 213.7545 -212 215 C-217.0922 216.8517 -222.0115 218.8621 -227 221 C-223.205 221.165 -223.205 221.165 -204 222 C-203.7244 236.9419 -204.8092 251.6731 -206 266.5625 C-206.1908 269.0137 -206.3816 271.4648 -206.5781 273.9902 C-207.0463 279.9939 -207.5223 285.997 -208 292 C-220.21 292 -232.42 292 -245 292 C-245 282.1 -245 272.2 -245 262 C-258.2 262 -271.4 262 -285 262 C-285 248.6778 -284.2577 236.2061 -283 223 C-270.13 222.67 -257.26 222.34 -244 222 C-244 218.7 -244 215.4 -244 212 C-243.0625 204.3125 -243.0625 204.3125 -242.5352 200.6133 C-241.7795 194.0992 -241.4362 187.5432 -241 181 C-255.19 181 -269.38 181 -284 181 C-284.4081 131.6189 -284.4081 131.6189 -279 119 C-274.8958 118.2053 -274.8958 118.2053 -269.7383 118.3164 C-268.8182 118.3277 -268.8182 118.3277 -264.1621 118.3848 C-262.2317 118.4434 -260.3014 118.5021 -258.3125 118.5625 C-256.3705 118.5941 -254.4286 118.6257 -252.4277 118.6582 C-247.6179 118.7409 -242.8087 118.8665 -238 119 C-238.33 131.54 -238.66 144.08 -239 157 C-226.13 157 -213.26 157 -200 157 C-200.0206 152.9987 -200.0412 148.9975 -200.0625 144.875 C-200.0676 135.5178 -199.8664 126.3141 -199 117 C-207.25 117 -215.5 117 -224 117 C-217.5361 110.5361 -208.5217 108.7547 -199.75 106.875 C-196 106 -196 106 -193 103 C-190.0645 101.6328 -187.0865 100.3563 -184.0898 99.1289 C-182.2948 98.3896 -180.4998 97.6504 -178.6504 96.8887 C-177.7078 96.5049 -177.7078 96.5049 -172.9375 94.5625 C-171.0793 93.7987 -169.2211 93.035 -167.3066 92.248 C-162.2085 90.1552 -157.1072 88.0708 -152 86 C-150.3081 85.3122 -148.6162 84.6244 -146.873 83.9158 C-142.6721 82.2642 -138.4779 80.7535 -134.1914 79.3438 C-132.7844 78.8784 -131.3774 78.413 -129.9277 77.9336 C-128.4872 77.4605 -127.0467 76.9874 -125.5625 76.5 C-110.1362 71.4202 -110.1362 71.4202 -103.2539 68.875 C-88.9912 63.785 -74.0403 60.3254 -59.2695 57.0195 C-55.5129 56.1225 -51.7845 55.1092 -48.0625 54.0781 C-39.8427 51.8748 -31.577 50.3382 -23.1875 48.9375 C-21.6724 48.6815 -20.1574 48.4254 -18.5964 48.1616 C14.4699 42.6897 14.4699 42.6897 29 43 C28.2472 41.9675 27.4944 40.9349 26.7188 39.8711 C20.1331 30.7999 13.6247 21.6772 7.1875 12.5 C5.8198 10.5509 4.4521 8.6019 3.043 6.5938 C0 2 0 2 0 0 Z " fill="#814BBA" transform="translate(504,279)"/>
<path d="M0 0 C4 1 4 1 5 4 C3.68 4.33 2.36 4.66 1 5 C0.67 5.99 0.34 6.98 0 8 C-2.9808 9.3757 -5.9845 10.7022 -9 12 C-11.6887 13.6309 -14.3535 15.3015 -17 17 C-22.6037 20.314 -28.2192 23.575 -33.9375 26.6875 C-47.5032 34.0997 -60.9045 41.7832 -74 50 C-75.4798 50.9255 -76.9597 51.8511 -78.4844 52.8047 C-88.4304 59.0488 -98.2784 65.4121 -108 72 C-109.2942 72.8727 -110.5884 73.7454 -111.9219 74.6445 C-121.4957 81.1543 -130.7919 87.9837 -140 95 C-144.5686 85.8627 -127.7525 56.3353 -124 47 C-173.1712 54.0245 -226.0583 78.7379 -268 105 C-269.4644 105.8727 -270.9287 106.7454 -272.4375 107.6445 C-276 110 -276 110 -276 112 C-277.7944 112.5362 -279.5888 113.0725 -281.4375 113.625 C-301.75 119.875 -301.75 119.875 -310 124 C-313.9752 125.7591 -317.955 127.5075 -321.9375 129.25 C-328.6541 132.1959 -335.3476 135.1614 -342 138.25 C-348.4401 141.2017 -354.9625 143.864 -361.543 146.4844 C-367.6753 149.1729 -366.9516 149.6615 -368 157 C-375.59 157 -383.18 157 -391 157 C-388.9279 152.8557 -381.128 152.2498 -377 151 C-375.02 150.01 -373.04 149.02 -371 148 C-369.68 148 -368.36 148 -367 148 C-367.0412 145.6694 -367.0825 143.3388 -367.125 140.9375 C-367.1105 131.8367 -366.7471 122.7726 -366.25 113.6875 C-366.1883 112.3229 -366.1266 110.9584 -366.063 109.5525 C-365.3214 97.1889 -361.7943 93.9622 -350.875 88.9375 C-349.078 88.1009 -347.2811 87.2643 -345.4297 86.4023 C-340.328 84.1451 -335.1831 82.0612 -330 80 C-328.9584 79.5153 -328.9584 79.5153 -323.6875 77.0625 C-319.4941 75.1421 -315.2469 73.3313 -310.9375 71.6875 C-305.3245 69.5131 -299.9087 67.1837 -294.4375 64.6875 C-282.2138 59.133 -269.9242 53.6926 -257 50 C-257 49.34 -257 48.68 -257 48 C-254.9581 47.4019 -252.9162 46.8037 -250.8125 46.1875 C-244 44 -244 44 -239 41 C-236.5271 40.1183 -234.0283 39.3077 -231.5156 38.5469 C-230.0367 38.0962 -228.5579 37.6455 -227.0342 37.1812 C-225.4554 36.7089 -223.8766 36.2366 -222.25 35.75 C-220.6171 35.2584 -218.9842 34.7668 -217.3018 34.2603 C-212.5371 32.8314 -207.7689 31.4146 -203 30 C-200.8447 29.3529 -198.6894 28.7058 -196.4688 28.0391 C-131.9698 9.2709 -66.965 2.0111 0 1 C0 0.67 0 0.34 0 0 Z " fill="#3044AE" transform="translate(668,343)"/>
<path d="M0 0 C12.21 0 24.42 0 37 0 C37 12.0046 36.6309 24.012 36 36 C51.51 36 67.02 36 83 36 C83.33 29.07 83.66 22.14 84 15 C84.33 10.05 84.66 5.1 85 0 C97.21 0 109.42 0 122 0 C122 12.1495 121.7162 23.9146 121 36 C132.22 36 143.44 36 155 36 C154.9897 34.0303 154.9897 34.0303 154.9375 24.0625 C154.8985 16.6118 155.005 9.3883 156 2 C156.33 2 156.66 2 157 2 C156.67 13.55 156.34 25.1 156 37 C144.45 37 132.9 37 121 37 C121.0103 39.0316 121.0103 39.0316 121.0625 49.3125 C121.0947 55.6539 121.1024 61.883 120.5234 68.1992 C119.793 76.2939 119.7154 84.3766 119.5625 92.5 C119.2654 106.1411 118.7933 119.7534 118 133.375 C117.9169 134.8039 117.8339 136.2329 117.7483 137.7051 C117.3135 144.8298 116.7106 151.894 116 159 C103.46 159 90.92 159 78 159 C77.8672 161.9507 77.7345 164.9013 77.5977 167.9414 C77.4194 171.8151 77.2411 175.6888 77.0625 179.5625 C76.9755 181.5071 76.8885 183.4516 76.7988 185.4551 C76.7118 187.3274 76.6248 189.1998 76.5352 191.1289 C76.4566 192.8518 76.3781 194.5747 76.2971 196.3499 C76.048 200.2493 75.5526 204.1319 75 208 C87.87 208 100.74 208 114 208 C114 221.0414 113.5345 233.9717 113 247 C100.13 247 87.26 247 74 247 C73.8661 218.3393 73.8661 218.3393 75 209 C73.02 209.33 71.04 209.66 69 210 C66.2536 210.0801 63.5054 210.1077 60.7578 210.0977 C59.198 210.0944 57.6383 210.0912 56.0312 210.0879 C54.4122 210.0795 52.7931 210.0711 51.125 210.0625 C50.3039 210.0602 50.3039 210.0602 46.1484 210.0488 C42.0989 210.0371 38.0495 210.0191 34 210 C33.34 211.98 32.68 213.96 32 216 C31.67 216 31.34 216 31 216 C31 213.36 31 210.72 31 208 C29.68 208 28.36 208 27 208 C26.8511 191.6373 27.3258 175.3494 28 159 C12.82 159 -2.36 159 -18 159 C-18.0822 143.5556 -17.7729 128.4576 -17 113 C-1.49 113 14.02 113 30 113 C30.0206 117.6406 30.0412 122.2812 30.0625 127.0625 C30.0716 128.4922 30.0807 129.9218 30.0901 131.3948 C30.0926 132.5755 30.0951 133.7562 30.0977 134.9727 C30.1029 136.1509 30.1081 137.3292 30.1135 138.5432 C29.9481 145.0373 29.4321 151.5182 29 158 C44.84 158 60.68 158 77 158 C77.1237 153.9575 77.2475 149.915 77.375 145.75 C77.7707 133.7624 78.338 121.7882 79 109.8125 C79.083 108.2943 79.166 106.7761 79.2515 105.2119 C79.6737 97.7706 80.2574 90.4256 81 83 C65.49 83 49.98 83 34 83 C33.9265 67.2808 33.9087 51.6876 35 36 C23.12 36 11.24 36 -1 36 C-1 23.8505 -0.7162 12.0854 0 0 Z " fill="#FB5F44" transform="translate(191,189)"/>
<path d="M0 0 C-0.6085 5.8772 -1.7666 11.3624 -3.3125 17.0625 C-3.7559 18.7099 -4.1994 20.3573 -4.6562 22.0547 C-5.0997 23.6866 -5.5431 25.3186 -6 27 C-6.7721 29.8955 -7.5431 32.7913 -8.3125 35.6875 C-8.8694 37.7706 -9.4262 39.8537 -10 42 C-7.7312 42.0825 -5.4625 42.165 -3.125 42.25 C26.9585 43.9792 26.9585 43.9792 35 48 C35 48.66 35 49.32 35 50 C32.9581 50.3713 30.9162 50.7425 28.8125 51.125 C-1.711 57.264 -31.4536 68.6015 -60.875 78.668 C-72.0523 82.2773 -83.1927 83.1078 -94.8633 84.2188 C-101 85 -101 85 -104 87 C-104.5117 91.5703 -104.5117 91.5703 -104.6875 97.125 C-104.7532 98.9632 -104.819 100.8014 -104.8867 102.6953 C-104.9241 104.1159 -104.9615 105.5364 -105 107 C-104.505 107.165 -104.505 107.165 -102 108 C-106.7899 110.0043 -111.5818 112.0036 -116.375 114 C-117.7414 114.5723 -119.1078 115.1447 -120.5156 115.7344 C-130.7734 120 -130.7734 120 -133 120 C-133.165 120.495 -133.165 120.495 -134 123 C-137.9276 124.0232 -141.8589 125.0353 -145.8125 125.9531 C-158 129 -158 129 -161 132 C-153.08 132.33 -145.16 132.66 -137 133 C-137 133.33 -137 133.66 -137 134 C-149.87 134 -162.74 134 -176 134 C-175.8763 129.2563 -175.7525 124.5125 -175.625 119.625 C-175.591 118.1705 -175.557 116.7159 -175.522 115.2173 C-175.2214 104.9725 -174.1421 95.2788 -173 85 C-160.46 85 -147.92 85 -135 85 C-134.8556 80.7306 -134.7113 76.4613 -134.5625 72.0625 C-134.2004 61.3535 -133.6296 50.7038 -133 40 C-111.55 40 -90.1 40 -68 40 C-64 14 -64 14 -63 2 C-54.9933 -6.0067 -11.8873 -0.0623 0 0 Z " fill="#E31C5A" transform="translate(442,263)"/>
<path d="M0 0 C-0.6085 5.8772 -1.7666 11.3624 -3.3125 17.0625 C-3.5342 17.8862 -3.5342 17.8862 -4.6562 22.0547 C-4.878 22.8707 -4.878 22.8707 -6 27 C-6.7721 29.8955 -7.5431 32.7913 -8.3125 35.6875 C-8.8694 37.7706 -9.4262 39.8537 -10 42 C-7.7312 42.0825 -5.4625 42.165 -3.125 42.25 C26.9585 43.9792 26.9585 43.9792 35 48 C35 48.66 35 49.32 35 50 C32.9581 50.3713 30.9162 50.7425 28.8125 51.125 C-1.8209 57.2861 -31.5382 68.7776 -61.1133 78.7188 C-67.3303 80.7682 -72.4137 82 -79 82 C-79 81.34 -79 80.68 -79 80 C-76.36 80 -73.72 80 -71 80 C-70.8763 77.5456 -70.7525 75.0913 -70.625 72.5625 C-69.1866 48.3732 -69.1866 48.3732 -66 42 C-66.33 41.67 -66.66 41.34 -67 41 C-67 35.1205 -66.4946 30.0792 -65.5625 24.3125 C-64.3979 16.8768 -63.5849 9.506 -63 2 C-54.9933 -6.0067 -11.8873 -0.0623 0 0 Z " fill="#E61764" transform="translate(442,263)"/>
<path d="M0 0 C0.33 0 0.66 0 1 0 C1 3.3 1 6.6 1 10 C13.87 10 26.74 10 40 10 C40 20.3177 39.9269 30.0547 39.125 40.2539 C39.0348 41.4221 39.0348 41.4221 38.5781 47.334 C38.3873 49.7194 38.1966 52.1048 38 54.5625 C37.8092 57.0137 37.6184 59.4648 37.4219 61.9902 C36.9537 67.9939 36.4777 73.997 36 80 C23.79 80 11.58 80 -1 80 C-1 70.1 -1 60.2 -1 50 C-14.2 50 -27.4 50 -41 50 C-41 36.6778 -40.2577 24.2061 -39 11 C-26.13 10.67 -13.26 10.34 0 10 C0 6.7 0 3.4 0 0 Z " fill="#DCE9F5" transform="translate(260,491)"/>
<path d="M0 0 C12.21 0 24.42 0 37 0 C37 12.0046 36.6309 24.012 36 36 C51.51 36 67.02 36 83 36 C83.33 29.07 83.66 22.14 84 15 C84.33 10.05 84.66 5.1 85 0 C97.21 0 109.42 0 122 0 C122 12.1495 121.7162 23.9146 121 36 C132.22 36 143.44 36 155 36 C154.9897 34.0303 154.9897 34.0303 154.9375 24.0625 C154.8985 16.6118 155.005 9.3883 156 2 C156.33 2 156.66 2 157 2 C156.67 13.55 156.34 25.1 156 37 C144.45 37 132.9 37 121 37 C121.0206 41.0631 121.0412 45.1262 121.0625 49.3125 C121.1051 57.6956 120.7619 65.6196 120 74 C107.46 74 94.92 74 82 74 C82 61.6622 82.4641 49.3262 83 37 C67.49 37 51.98 37 36 37 C36 39.31 36 41.62 36 44 C35.67 44 35.34 44 35 44 C35 41.36 35 38.72 35 36 C23.12 36 11.24 36 -1 36 C-1 23.8505 -0.7162 12.0854 0 0 Z " fill="#FDFDFC" transform="translate(191,189)"/>
<path d="M0 0 C38.61 0 77.22 0 117 0 C116.67 0.99 116.34 1.98 116 3 C116 2.34 116 1.68 116 1 C91.91 1 67.82 1 43 1 C42.0925 7.3938 41.185 13.7875 40.25 20.375 C39.1722 27.9175 38.0875 35.4589 37 43 C36.8937 43.7386 36.8937 43.7386 36.3555 47.4766 C35.8286 51.1106 35.2899 54.7429 34.75 58.375 C34.4561 60.3627 34.1622 62.3505 33.8594 64.3984 C33 69 33 69 31 73 C25.8998 73.2856 21.0231 73.3185 15.9297 73.1719 C14.4232 73.144 12.9167 73.1162 11.3645 73.0875 C6.5341 72.9938 1.7048 72.8722 -3.125 72.75 C-6.3919 72.6818 -9.6588 72.6153 -12.9258 72.5508 C-20.9514 72.3917 -28.9749 72.1948 -37 72 C-36.67 59.79 -36.34 47.58 -36 35 C-24.45 35 -12.9 35 -1 35 C-1.0206 31.0813 -1.0412 27.1625 -1.0625 23.125 C-1.1039 15.2499 -0.7865 7.8655 0 0 Z " fill="#FC7834" transform="translate(348,191)"/>
<path d="M0 0 C15.84 0 31.68 0 48 0 C48 20.4769 48 20.4769 47.5625 30.6875 C47.4813 32.6714 47.4001 34.6552 47.3164 36.6992 C47 42 47 42 46 49 C58.87 49 71.74 49 85 49 C85 62.0414 84.5345 74.9717 84 88 C71.13 88 58.26 88 45 88 C44.8661 59.3393 44.8661 59.3393 46 50 C45.01 50.165 45.01 50.165 40 51 C37.2536 51.0801 34.5054 51.1077 31.7578 51.0977 C30.198 51.0944 28.6383 51.0912 27.0312 51.0879 C25.4122 51.0795 23.7931 51.0711 22.125 51.0625 C21.3039 51.0602 21.3039 51.0602 17.1484 51.0488 C13.0989 51.0371 9.0495 51.0191 5 51 C4.34 52.98 3.68 54.96 3 57 C2.67 57 2.34 57 2 57 C2 54.36 2 51.72 2 49 C0.68 49 -0.64 49 -2 49 C-2.2994 32.5505 -1.3523 16.396 0 0 Z " fill="#F94D55" transform="translate(220,348)"/>
<path d="M0 0 C15.51 0 31.02 0 47 0 C47 12.3378 46.879 24.6935 46 37 C58.21 37 70.42 37 83 37 C83 50.2 83 63.4 83 77 C77.4931 77.1856 71.9862 77.3713 66.3125 77.5625 C65.4477 77.5932 65.4477 77.5932 61.0715 77.7483 C60.3875 77.7698 60.3875 77.7698 56.9258 77.8789 C56.2267 77.9025 56.2267 77.9025 52.6887 78.0217 C49 78 49 78 44 77 C43.9727 73.7084 43.9535 70.4167 43.9375 67.125 C43.9259 65.292 43.9143 63.4589 43.9023 61.5703 C43.9935 56.3681 44.4823 51.1772 45 46 C29.49 46 13.98 46 -2 46 C-2.1469 30.2031 -1.8529 15.7493 0 0 Z " fill="#FC7C34" transform="translate(227,226)"/>
<path d="M0 0 C1.702 0.0367 3.4039 0.0733 5.1575 0.1111 C6.9976 0.1336 8.8377 0.1562 10.7336 0.1794 C11.6988 0.2088 11.6988 0.2088 16.5833 0.3572 C18.5252 0.3888 20.4672 0.4203 22.468 0.4529 C27.2779 0.5356 32.087 0.6612 36.8958 0.7947 C36.5658 13.3347 36.2358 25.8747 35.8958 38.7947 C48.4358 38.7947 60.9758 38.7947 73.8958 38.7947 C73.8958 39.7847 73.8958 40.7747 73.8958 41.7947 C73.2358 41.7947 72.5758 41.7947 71.8958 41.7947 C71.8958 42.4547 71.8958 43.1147 71.8958 43.7947 C68.314 45.6514 64.6777 47.4032 61.0208 49.1072 C39.5188 59.1716 39.5188 59.1716 35.8958 62.7947 C31.4243 63.1353 31.4243 63.1353 25.759 63.0876 C24.7487 63.0828 24.7487 63.0828 19.636 63.0583 C18.5754 63.0458 18.5754 63.0458 13.2083 62.9822 C12.1419 62.9754 12.1419 62.9754 6.7454 62.9412 C1.4619 62.9057 -3.821 62.8563 -9.1042 62.7947 C-9.7686 1.8914 -9.7686 1.8914 0 0 Z " fill="#B91E87" transform="translate(229.104248046875,397.205322265625)"/>
<path d="M0 0 C9.7997 -0.1047 19.4795 0.2871 29.25 0.9375 C30.6615 1.0245 32.073 1.1115 33.5273 1.2012 C43.8747 1.8747 43.8747 1.8747 45 3 C44.8556 4.5056 44.7113 6.0113 44.5625 7.5625 C42.9922 28.3258 44.9385 46.6924 49 67 C31.18 67 13.36 67 -5 67 C-5 58.4025 -4.54 50.4485 -3.625 41.9375 C-2.1585 27.9755 -1.0036 14.0035 0 0 Z " fill="#076CAB" transform="translate(402,505)"/>
<path d="M0 0 C9.3263 -0.0459 18.6522 -0.0857 27.9785 -0.1099 C31.1524 -0.1199 34.3262 -0.1336 37.5 -0.1509 C42.0573 -0.1751 46.6145 -0.1865 51.1719 -0.1953 C51.8834 -0.2005 51.8834 -0.2005 55.4841 -0.2266 C65.5445 -0.2277 65.5445 -0.2277 70 2 C69.8047 7.7148 69.8047 7.7148 68.875 14.9375 C68.5837 17.2978 68.2923 19.658 67.9922 22.0898 C65.4531 39.7734 65.4531 39.7734 63 41 C60.3739 41.0992 57.7452 41.1308 55.1172 41.1328 C53.4847 41.1347 51.8522 41.1367 50.1702 41.1387 C48.4228 41.1342 46.6754 41.1296 44.875 41.125 C43.1141 41.1231 41.3531 41.1211 39.5388 41.1191 C26.3297 41.0756 13.1929 40.6898 0 40 C0 26.8 0 13.6 0 0 Z " fill="#FA3D3F" transform="translate(310,263)"/>
<path d="M0 0 C0 0.66 0 1.32 0 2 C2.2688 2.0825 4.5375 2.165 6.875 2.25 C36.9585 3.9792 36.9585 3.9792 45 8 C45 8.66 45 9.32 45 10 C42.9581 10.3712 40.9162 10.7425 38.8125 11.125 C8.1791 17.2861 -21.5382 28.7776 -51.1133 38.7188 C-57.3303 40.7682 -62.4137 42 -69 42 C-69 41.34 -69 40.68 -69 40 C-66.36 40 -63.72 40 -61 40 C-60.8763 37.5456 -60.7525 35.0913 -60.625 32.5625 C-60.2463 26.2764 -59.7758 20.0141 -59.125 13.75 C-58.9832 12.3836 -58.8414 11.0172 -58.6953 9.6094 C-58 6 -58 6 -55 1 C-49.8259 0.3406 -49.8259 0.3406 -43.1836 0.293 C-40.8111 0.264 -38.4386 0.235 -35.9941 0.2051 C-34.7473 0.2022 -34.7473 0.2022 -28.4375 0.1875 C-27.1887 0.1749 -27.1887 0.1749 -20.8691 0.1113 C-13.9127 0.0451 -6.9567 0 0 0 Z " fill="#C31A7C" transform="translate(432,303)"/>
<path d="M0 0 C-1.7402 0.7013 -3.4805 1.4025 -5.2734 2.125 C-43.6691 17.6691 -43.6691 17.6691 -47 21 C-48.32 21 -49.64 21 -51 21 C-53.5099 21.9651 -55.9859 23.02 -58.4375 24.125 C-59.8632 24.7644 -61.2889 25.4038 -62.7578 26.0625 C-68.5133 28.6912 -74.2618 31.3338 -80 34 C-80.8972 34.4022 -80.8972 34.4022 -85.4375 36.4375 C-107.1486 46.4392 -107.1486 46.4392 -107.5352 59.9062 C-107.6235 62.0938 -107.7118 64.2813 -107.8027 66.5352 C-107.9759 71.1774 -108.1217 75.8208 -108.2402 80.4648 C-108.3376 82.6524 -108.4349 84.8399 -108.5352 87.0938 C-108.601 89.1118 -108.6668 91.1298 -108.7346 93.209 C-110.459 99.738 -112.63 99.7581 -119 101 C-123.2371 102.5227 -127.1422 104.0754 -131.125 106.1875 C-137.546 108.5748 -143.2103 108.2637 -150 108 C-150.177 98.086 -150.0177 88.2158 -149.5 78.3125 C-149.4072 76.308 -149.3144 74.3035 -149.2188 72.2383 C-146.7247 61.5186 -136.0459 58.9 -126.75 54.6875 C-124.4555 53.6395 -122.1609 52.5915 -119.7969 51.5117 C-114 49 -114 49 -110 48 C-110 47.34 -110 46.68 -110 46 C-109.34 46 -108.68 46 -108 46 C-107.67 45.01 -107.34 44.02 -107 43 C-103.6992 41.588 -100.3555 40.2765 -97 39 C-92.053 36.7894 -87.1168 34.5617 -82.1875 32.3125 C-64.9753 24.4996 -47.611 17.0902 -30.1797 9.7812 C-26.7628 8.3251 -23.3765 6.7975 -20 5.25 C-5.3571 -1.3393 -5.3571 -1.3393 0 0 Z " fill="#7326B4" transform="translate(411,393)"/>
<path d="M0 0 C12.54 0 25.08 0 38 0 C37.875 17.9375 37.875 17.9375 37.8198 23.6052 C37.8148 25.0645 37.8098 26.5238 37.8047 28.0273 C37.7942 29.5303 37.7837 31.0333 37.7729 32.5818 C38 36 38 36 40 37 C35 39 35 39 29.3125 40.375 C14.92 44.08 14.92 44.08 12 47 C19.92 47.33 27.84 47.66 36 48 C36 48.33 36 48.66 36 49 C23.13 49 10.26 49 -3 49 C-2.8763 44.2563 -2.7525 39.5125 -2.625 34.625 C-2.591 33.1705 -2.557 31.7159 -2.522 30.2173 C-2.2214 19.9725 -1.1421 10.2788 0 0 Z " fill="#E51D56" transform="translate(269,348)"/>
<path d="M0 0 C12.87 0 25.74 0 39 0 C39 15.2129 38.1704 29.8576 37 45 C24.46 45 11.92 45 -1 45 C-1 46.65 -1 48.3 -1 50 C-1.33 50 -1.66 50 -2 50 C-1.8578 44.4791 -1.7113 38.9583 -1.5625 33.4375 C-1.5232 31.8938 -1.4839 30.3502 -1.4434 28.7598 C-1.4015 27.229 -1.3596 25.6982 -1.3164 24.1211 C-1.2797 22.7333 -1.2431 21.3456 -1.2053 19.9158 C-0.9278 13.2708 -0.4424 6.636 0 0 Z " fill="#F94C4C" transform="translate(270,303)"/>
<path d="M0 0 C12.87 0 25.74 0 39 0 C39.0826 13.1302 38.7733 25.854 38 39 C24.8 39 11.6 39 -2 39 C-2 25.6778 -1.2577 13.2061 0 0 Z " fill="#234AA0" transform="translate(221,502)"/>
<path d="M0 0 C12.87 0 25.74 0 39 0 C39 13.0414 38.5345 25.9717 38 39 C25.13 39 12.26 39 -1 39 C-1.125 12.375 -1.125 12.375 0 0 Z " fill="#F3B9E0" transform="translate(266,397)"/>
<path d="M0 0 C13.2 0 26.4 0 40 0 C39.67 12.21 39.34 24.42 39 37 C25.8 37 12.6 37 -1 37 C-0.67 24.79 -0.34 12.58 0 0 Z " fill="#F54754" transform="translate(86,359)"/>
<path d="M0 0 C12.87 0 25.74 0 39 0 C39 12.3378 38.6485 24.6792 38 37 C25.13 37 12.26 37 -1 37 C-1.125 10.125 -1.125 10.125 0 0 Z " fill="#D22679" transform="translate(151,400)"/>
<path d="M0 0 C12.87 0 25.74 0 39 0 C38.67 12.21 38.34 24.42 38 37 C25.13 37 12.26 37 -1 37 C-1.125 10.125 -1.125 10.125 0 0 Z " fill="#FB7636" transform="translate(136,260)"/>
<path d="M0 0 C12.87 0 25.74 0 39 0 C39 12.4904 38.0587 24.5606 37 37 C24.46 37 11.92 37 -1 37 C-1.125 11.25 -1.125 11.25 0 0 Z " fill="#722AAE" transform="translate(178,462)"/>
<path d="M0 0 C12.21 0 24.42 0 37 0 C37 12.1495 36.7162 23.9146 36 36 C24.12 36 12.24 36 0 36 C0 24.12 0 12.24 0 0 Z " fill="#FB7F31" transform="translate(276,189)"/>
<path d="M0 0 C12.21 0 24.42 0 37 0 C37.125 24.875 37.125 24.875 36 35 C23.79 35 11.58 35 -1 35 C-1 23.2258 -0.6474 11.7339 0 0 Z " fill="#6F2EAD" transform="translate(93,464)"/>
<path d="M0 0 C12.21 0 24.42 0 37 0 C37 11.6714 36.6474 23.3465 36 35 C23.79 35 11.58 35 -1 35 C-1 23.1973 -0.691 11.747 0 0 Z " fill="#FB802E" transform="translate(191,189)"/>
<path d="M0 0 C11.55 0 23.1 0 35 0 C34.67 10.56 34.34 21.12 34 32 C22.45 32 10.9 32 -1 32 C-0.67 21.44 -0.34 10.88 0 0 Z " fill="#1464AC" transform="translate(143,522)"/>
<path d="M0 0 C11.88 0 23.76 0 36 0 C36 9.57 36 19.14 36 29 C23.79 29 11.58 29 -1 29 C-1.125 9 -1.125 9 0 0 Z " fill="#076FB1" transform="translate(260,542)"/>
<path d="M0 0 C10.56 0 21.12 0 32 0 C31.67 0.66 31.34 1.32 31 2 C30.7665 5.3721 30.5871 8.7481 30.4375 12.125 C30.3537 13.9632 30.2699 15.8014 30.1836 17.6953 C30.1533 18.4056 30.1533 18.4056 30 22 C30.99 22.33 31.98 22.66 33 23 C27.8964 25.1472 22.7921 27.2928 17.6875 29.4375 C16.2341 30.0492 14.7807 30.6608 13.2832 31.291 C2.3398 35.8867 2.3398 35.8867 -1 37 C-1.1544 24.6444 -0.5516 12.3431 0 0 Z " fill="#F98AA3" transform="translate(307,348)"/>
<path d="M0 0 C0.33 0 0.66 0 1 0 C0.67 11.55 0.34 23.1 0 35 C-11.55 35 -23.1 35 -35 35 C-34.9794 39.0631 -34.9588 43.1262 -34.9375 47.3125 C-34.8949 55.6956 -35.2381 63.6196 -36 72 C-48.54 72 -61.08 72 -74 72 C-74 67.38 -74 62.76 -74 58 C-73.67 58 -73.34 58 -73 58 C-73 62.29 -73 66.58 -73 71 C-61.12 71 -49.24 71 -37 71 C-37 66.71 -37 62.42 -37 58 C-36.7337 50.3294 -36.3587 42.6672 -36 35 C-47.88 35 -59.76 35 -72 35 C-72 40.61 -72 46.22 -72 52 C-72.33 52 -72.66 52 -73 52 C-73 46.39 -73 40.78 -73 35 C-88.51 35 -104.02 35 -120 35 C-120 37.31 -120 39.62 -120 42 C-120.33 42 -120.66 42 -121 42 C-121 39.36 -121 36.72 -121 34 C-132.88 34 -144.76 34 -157 34 C-157 33.67 -157 33.34 -157 33 C-128.9855 32.8471 -101.0059 33.3178 -73 34 C-72.67 27.07 -72.34 20.14 -72 13 C-71.67 13 -71.34 13 -71 13 C-71 19.93 -71 26.86 -71 34 C-47.9 34 -24.8 34 -1 34 C-1 25.75 -1 17.5 -1 9 C-0.67 6.03 -0.34 3.06 0 0 Z " fill="#F5C9A3" transform="translate(347,191)"/>
<path d="M0 0 C-1.7402 0.7013 -3.4805 1.4025 -5.2734 2.125 C-43.6691 17.6691 -43.6691 17.6691 -47 21 C-48.32 21 -49.64 21 -51 21 C-53.5099 21.9651 -55.9859 23.02 -58.4375 24.125 C-59.8632 24.7644 -61.2889 25.4038 -62.7578 26.0625 C-68.5133 28.6912 -74.2618 31.3338 -80 34 C-81.7944 34.8044 -83.5888 35.6087 -85.4375 36.4375 C-103.9792 44.9792 -103.9792 44.9792 -108 49 C-108.66 48.01 -109.32 47.02 -110 46 C-109.34 46 -108.68 46 -108 46 C-107.67 45.01 -107.34 44.02 -107 43 C-103.6992 41.588 -100.3555 40.2765 -97 39 C-92.053 36.7894 -87.1168 34.5617 -82.1875 32.3125 C-64.9753 24.4996 -47.611 17.0902 -30.1797 9.7812 C-26.7628 8.3251 -23.3765 6.7975 -20 5.25 C-5.3571 -1.3393 -5.3571 -1.3393 0 0 Z " fill="#7F1C92" transform="translate(411,393)"/>
<path d="M0 0 C0.33 0 0.66 0 1 0 C1 8.25 1 16.5 1 25 C15.85 25 30.7 25 46 25 C46 21.7 46 18.4 46 15 C46.33 15 46.66 15 47 15 C47 18.3 47 21.6 47 25 C62.84 25 78.68 25 95 25 C95 25.33 95 25.66 95 26 C79.16 26 63.32 26 47 26 C47 31.61 47 37.22 47 43 C46.67 43 46.34 43 46 43 C46 37.39 46 31.78 46 26 C30.82 26 15.64 26 0 26 C0 17.42 0 8.84 0 0 Z " fill="#EC847C" transform="translate(173,322)"/>
<path d="M0 0 C1 7 1 7 0 9 C-3.8516 9.1467 -7.7083 9.1671 -11.5625 9.125 C-12.6253 9.116 -12.6253 9.116 -18.0039 9.0703 C-18.8283 9.0587 -18.8283 9.0587 -23 9 C-20.9279 4.8557 -13.128 4.2498 -9 3 C-3 0 -3 0 0 0 Z " fill="#2C38B4" transform="translate(300,491)"/>
<path d="M0 0 C11.55 0 23.1 0 35 0 C34.67 3.3 34.34 6.6 34 10 C33.67 10 33.34 10 33 10 C33 7.36 33 4.72 33 2 C22.77 2 12.54 2 2 2 C1.67 10.58 1.34 19.16 1 28 C0.67 28 0.34 28 0 28 C0 18.76 0 9.52 0 0 Z " fill="#275DA5" transform="translate(143,522)"/>
<path d="M0 0 C14.52 0 29.04 0 44 0 C39.355 2.3225 36.6795 2.2307 31.5156 2.1953 C30.6874 2.1921 30.6874 2.1921 26.4961 2.1758 C24.7649 2.159 23.0337 2.1423 21.25 2.125 C19.5033 2.116 17.7566 2.107 15.957 2.0977 C11.6379 2.0741 7.319 2.0411 3 2 C2.34 3.98 1.68 5.96 1 8 C0.67 8 0.34 8 0 8 C0 5.36 0 2.72 0 0 Z " fill="#E22E63" transform="translate(222,397)"/>
</svg>
